<?xml version="1.0" encoding="UTF-8"?>
<svg width="411px" height="210px" viewBox="0 0 411 210" version="1.1" xmlns="http://www.w3.org/2000/svg" xmlns:xlink="http://www.w3.org/1999/xlink">
    <title>E98EBED4-FFBD-40DA-AB77-1671306101FA@1x</title>
    <defs>
        <linearGradient x1="1.57636834%" y1="58.7901181%" x2="81.4083303%" y2="61.9956276%" id="linearGradient-1">
            <stop stop-color="#632472" offset="0%"></stop>
            <stop stop-color="#6E2A7E" offset="100%"></stop>
        </linearGradient>
        <polygon id="path-2" points="263.178708 181.186853 0.638551667 170.341782 4.653172 118.00923 7.2495219 114.708308 22.358677 117.535222 36.5242248 107.161304 65.3299835 93.015311 94.6046865 92.0730062 116.327671 81.2279355 130.021415 67.553095 198.015473 46.8052582 255.624131 35.4890351 325.059385 0.592349969"></polygon>
        <linearGradient x1="100%" y1="33.9806527%" x2="0.615770297%" y2="57.1729279%" id="linearGradient-4">
            <stop stop-color="#D47DE8" offset="0.0659839527%"></stop>
            <stop stop-color="#C991D7" offset="41.9728478%"></stop>
            <stop stop-color="#7C3A8D" offset="74.3612753%"></stop>
            <stop stop-color="#642574" offset="100%"></stop>
        </linearGradient>
        <linearGradient x1="8.42227876%" y1="50%" x2="95.7891568%" y2="50%" id="linearGradient-5">
            <stop stop-color="#D380E6" offset="0%"></stop>
            <stop stop-color="#CB8EDA" offset="100%"></stop>
        </linearGradient>
        <polygon id="path-6" points="0.862961181 179.504079 88.0977722 172.645486 130.599015 63.6823043 61.6973901 0"></polygon>
        <linearGradient x1="42.8748939%" y1="21.2351711%" x2="62.0629485%" y2="83.6446609%" id="linearGradient-8">
            <stop stop-color="#AD62BF" offset="0%"></stop>
            <stop stop-color="#9E56AF" offset="18.0071988%"></stop>
            <stop stop-color="#C494CF" offset="40.8968091%"></stop>
            <stop stop-color="#823E93" offset="70.257742%"></stop>
            <stop stop-color="#551764" offset="100%"></stop>
        </linearGradient>
        <linearGradient x1="90.7430933%" y1="47.8172831%" x2="6.86063962%" y2="55.7708221%" id="linearGradient-9">
            <stop stop-color="#81328E" offset="0%"></stop>
            <stop stop-color="#BA6EC9" offset="53.3588343%"></stop>
            <stop stop-color="#632472" offset="100%"></stop>
        </linearGradient>
        <linearGradient x1="2.73048316%" y1="55.9486986%" x2="80.3498839%" y2="44.9427848%" id="linearGradient-10">
            <stop stop-color="#632472" offset="0%"></stop>
            <stop stop-color="#9F69A9" offset="17.5933328%"></stop>
            <stop stop-color="#F4D4F9" offset="48.9348916%"></stop>
            <stop stop-color="#CA91D4" offset="100%"></stop>
        </linearGradient>
    </defs>
    <g id="Homepage-&amp;-program-detail" stroke="none" stroke-width="1" fill="none" fill-rule="evenodd">
        <g id="Imagery" transform="translate(-959.000000, -394.000000)">
            <g id="Building" transform="translate(959.000000, 394.000000)">
                <g id="Left" transform="translate(0.931000, 26.999000)">
                    <mask id="mask-3" fill="white">
                        <use xlink:href="#path-2"></use>
                    </mask>
                    <use id="Mask" fill="url(#linearGradient-1)" xlink:href="#path-2"></use>
                    <path d="M224.176225,174.119239 L211.199392,130.519924 L225.013717,90.0857656 L240.034258,129.25101 L224.176225,174.119239 Z M198.608433,88.2066323 L210.330458,51.8101866 L223.41305,85.9197356 L209.79595,125.795002 L198.608433,88.2066323 Z M193.414842,173.748545 L183.496425,135.122233 L197.059217,93.0199511 L208.201,130.460043 L193.414842,173.748545 Z M168.324392,172.907355 L160.072383,134.566192 L170.976925,97.8703392 L180.523758,135.036688 L168.324392,172.907355 Z M146.318083,170.831469 L140.875817,142.530409 L150.31975,102.826233 L157.125442,134.454983 L146.318083,170.831469 Z M134.584625,109.792428 L143.191067,69.6975968 L148.924883,96.3419394 L139.563842,135.701086 L134.584625,109.792428 Z M75.3571,167.968571 L69.3946167,145.128119 L84.8925,99.2818278 L88.1052667,128.230176 L75.3571,167.968571 Z M59.6705667,164.960246 L57.632575,111.403521 L66.413375,145.022613 L59.6705667,164.960246 Z M277.50415,31.8069691 C276.292217,32.4000795 275.077425,32.9846354 273.8512,33.5663398 L259.90825,73.0195851 L246.371183,44.8839121 C245.445083,45.1918733 244.533275,45.4827255 243.624325,45.7650232 L258.564833,76.8177727 L241.503442,125.099238 L226.454317,85.8655573 L239.765575,46.8999171 C238.645108,47.2107297 237.541792,47.4958789 236.449908,47.7610677 L224.856508,81.6995272 L213.074458,50.9804023 C211.110783,51.1628978 209.232858,51.3282844 207.434967,51.4851165 L197.167833,83.3619472 L188.329867,53.6722109 C187.39805,53.8204885 186.466233,53.9744691 185.488683,54.1455586 L195.615758,88.1724144 L182.164442,129.935368 L172.557583,92.5409004 L183.873725,54.4506683 C182.847583,54.6445698 181.801433,54.8441742 180.712408,55.0665906 L171.177008,87.1572832 L163.968292,59.084343 C163.119367,59.3096109 162.321892,59.5149183 161.438667,59.7601467 C161.358633,59.7801071 161.287175,59.808622 161.207142,59.8285825 L169.593492,92.4895735 L158.820433,128.749148 L151.851817,96.3761573 L160.492558,60.0509989 C159.406392,60.3618115 158.365958,60.6982876 157.319808,61.0319122 L150.459808,89.8918642 L145.274792,65.7967555 C143.654117,66.5695099 142.096325,67.3679277 140.589983,68.186306 L133.20405,102.606668 L128.099067,76.0421668 C127.230133,76.6609406 126.37835,77.2711599 125.543717,77.8813793 L131.669125,109.761061 L119.369717,167.078905 L111.294925,123.86169 L124.669067,78.5258165 C123.35995,79.4896208 122.085133,80.4420192 120.847475,81.3773086 L110.140158,117.676804 L105.292425,91.7310766 C104.403483,92.1616519 103.503108,92.5409004 102.599875,92.8802279 L108.359417,123.710561 L95.3654333,167.75756 L91.0121917,128.521028 L102.425517,92.9458123 C101.333633,93.3478727 100.227458,93.6757943 99.1069917,93.9324285 L90.2433,121.56909 L87.2992167,95.0673224 C85.9415083,95.0673224 84.6152417,95.041659 83.3289917,94.9874806 L68.0797833,140.092383 L57.0180333,97.7277646 C56.5807083,97.9416265 56.1519583,98.129825 55.7089167,98.3722018 C55.214425,98.6402421 54.785675,98.9168368 54.3083333,99.1905801 L57.1095,172.836068 L59.9849833,172.95583 L67.7282083,150.055497 L73.856475,173.531832 L76.54045,173.64304 L88.8741583,135.182114 L93.2216833,174.335953 L96.36585,174.46427 L109.514183,129.895447 L118.006292,175.36249 L120.493042,175.465143 L133.0497,116.946822 L137.9546,142.467676 L130.154208,175.268391 L132.935367,175.924234 L139.266575,149.297 L144.485892,176.460314 L147.587183,176.588631 L158.374533,140.274879 L166.357858,177.367089 L169.839308,177.512515 L181.852883,140.223552 L191.662683,178.416438 L194.795417,178.547607 L209.604442,135.184965 L222.858533,179.708164 L225.193792,179.807966 L241.612058,133.362862 L260.174075,181.758387 L262.8409,180.737552 L243.078383,129.208238 L260.314133,80.4505737 L282.660774,126.058004 L283.613552,122.731264 L261.654692,76.6523861 L277.50415,31.8069691 Z M282.286427,29.4791907 L302.373772,68.0559928 L305.153094,66.7443992 L285.047159,28.1351027 C284.133112,28.5841167 283.215967,29.0301767 282.286427,29.4791907" id="Fill-4" fill="url(#linearGradient-4)" mask="url(#mask-3)"></path>
                    <path d="M184.296492,103.709227 C276.369118,103.457548 337.501167,103.632407 367.692637,104.233806 C397.884108,104.835204 398.232251,105.884998 368.737068,107.383188 L184.293684,107.519372 L184.296492,103.709227 Z" id="Rectangle" fill="url(#linearGradient-5)" mask="url(#mask-3)" transform="translate(287.447039, 105.558611) scale(1, -1) rotate(-109.000000) translate(-287.447039, -105.558611) "></path>
                </g>
                <g id="Group-13">
                    <g id="Group-12" transform="translate(262.917856, 28.184290)">
                        <g id="Right" transform="translate(0.089640, 0.834472)">
                            <mask id="mask-7" fill="white">
                                <use xlink:href="#path-6"></use>
                            </mask>
                            <use id="Mask" fill="#551764" xlink:href="#path-6"></use>
                            <path d="M106.464585,105.660809 L77.5350473,161.89342 L90.8209725,102.187332 L112.120177,61.4968136 L106.464585,105.660809 Z M78.4895535,125.747557 L85.7283679,111.916494 L76.6176926,152.861239 L78.4895535,125.747557 Z M52.586429,169.063178 L55.5128191,109.485632 L78.9782377,77.1674479 L75.6803333,124.9506 L52.586429,169.063178 Z M14.7776982,160.727978 L53.760986,86.9508825 L52.7035989,108.491578 L14.7776982,160.727978 Z M56.9102846,80.986558 L81.9903619,33.5233316 L79.3468943,71.7944141 L55.7700213,104.269704 L56.9102846,80.986558 Z M99.8630605,48.3970088 L88.1117754,101.201848 L78.9782377,118.652067 L82.1418254,72.8084636 L99.8630605,48.3970088 Z M127.915253,63.9705229 L110.305472,98.19969 L116.984157,46.0546974 L93.20438,91.4755425 L105.647253,35.5685694 L82.5133398,67.4325733 L85.7683772,20.2521382 L57.2417898,74.2395587 L60.6054236,5.72980776 L57.7533365,5.58984037 L54.0924911,80.2038832 L25.0251634,134.241515 L0.857802784,179.169861 L3.27836174,180.675224 L52.4463967,113.707505 L49.3885477,175.998705 L52.3092222,175.761617 L75.1916491,132.048946 L72.468163,171.519749 L71.87374,174.184842 L74.5343544,173.970606 L75.0887682,172.890858 L75.2345161,172.902284 L75.2573785,172.565219 L105.401482,113.973158 L102.252184,138.556001 L102.16645,141.749543 L106.104502,130.98348 L109.239511,106.514895 L130.455839,65.275933 L127.915253,63.9705229 Z" id="Fill-10" fill="url(#linearGradient-8)" opacity="0.800000012" mask="url(#mask-7)"></path>
                        </g>
                    </g>
                    <path d="M0.931,144.7705 C0.931,144.7705 2.19448084,144.006363 2.69790383,143.407965 C4.08423732,141.76009 7.08586172,138.790272 10.0859481,139.714398 C14.1754639,140.971248 20.7026854,143.250717 25.738134,141.048373 C30.7735825,138.848885 47.3316918,120.293209 58.5371365,118.01374 C74.5836991,114.751643 85.280455,119.587659 93.1451282,116.75689 C101.012659,113.926121 150.406923,71.7873681 186.192329,69.8221118 C195.160114,69.3279412 221.220418,66.5971489 239.047392,62.0382112 C249.195449,59.4445299 311.489834,31.3767842 331.78595,0.952444739 L410.281219,81.5365251 L392.662865,95.6875135 L322.18659,34.6788719 C322.18659,34.6788719 263.061508,72.2672563 229.059371,76.5034121 C201.295817,79.9626061 194.688577,78.0773311 162.67547,86.8838505 C128.813365,96.1959664 116.427648,118.645021 98.8064355,121.472934 C81.1880814,124.303703 70.8056839,118.01374 56.965345,125.563409 C43.1221483,133.110222 35.3089155,142.059566 29.9848289,144.470432 C23.7319564,147.301201 16.536009,145.295954 11.9349465,143.407823 C8.83994609,142.139547 7.62080742,145.204261 7.62080742,145.204261 C3.64386742,145.588614 1.25876494,145.75436 0.4655,145.7015 C-0.662336727,145.626346 0.931,144.7705 0.931,144.7705 Z" id="Fill-7" fill="url(#linearGradient-9)"></path>
                    <path d="M0.476300464,144.728182 C0.476300464,144.728182 5.99760808,137.634412 10.0900143,138.895329 C14.1852804,140.153387 20.7171153,142.435047 25.753263,140.230586 C30.7922705,138.028985 47.3649428,119.455473 58.5754477,117.173813 C74.6333519,113.90858 85.3376681,118.749245 93.2107599,115.915755 C101.080992,113.082265 135.681986,86.9546864 155.863755,77.4363334 C167.039942,72.1610671 176.500235,70.697145 186.323726,68.9358637 C195.169157,67.348995 221.376572,65.7078011 239.216146,61.1444814 C249.371376,58.548307 311.709791,30.4535829 332.017391,0 L410.571,80.6615368 L408.366077,82.5514831 L334.379605,7.00223684 C334.379605,7.00223684 304.7833,50.4424101 238.66706,68.0695192 C211.613138,75.2833385 195.76972,72.4784409 163.733987,81.2905658 C129.847948,90.6144916 109.580385,115.915755 91.9495781,118.749245 C74.3187714,121.582735 65.1873577,115.915755 51.3372365,123.469822 C37.4813957,131.026748 34.2235056,137.096304 28.9820028,140.467902 C23.7405,143.8395 17.2235,143.8395 12.103,141.9775 C6.9825,140.1155 0.952600928,144.728182 0.952600928,144.728182 C0.952600928,144.728182 0.793834107,144.728182 0.476300464,144.728182 Z" id="Stroke-1" fill="url(#linearGradient-10)"></path>
                </g>
            </g>
        </g>
    </g>
</svg>