<?xml version="1.0" encoding="utf-8"?>
<!-- Generator: Adobe Illustrator 24.2.1, SVG Export Plug-In . SVG Version: 6.00 Build 0)  -->
<svg version="1.1" id="Layer_1" xmlns="http://www.w3.org/2000/svg" xmlns:xlink="http://www.w3.org/1999/xlink" x="0px" y="0px"
	 viewBox="0 0 625.1 102.4" style="enable-background:new 0 0 625.1 102.4;" xml:space="preserve">
<style type="text/css">
	.st0{fill:#EE3124;}
	.st1{fill:#702784;}
	.st2{fill:#0072BC;}
	.st3{fill:#AE132A;}
	.st4{fill:#00AAE7;}
	.st5{opacity:0.4;}
	.st6{opacity:0.3;}
</style>
<path class="st0" d="M148.1,96.8c-10.1,0-20.7-2.2-28.1-5.6l3.3-15.2c8,2.5,16.1,4.2,25.1,4.2c10.1,0,12-2,12-9.3
	c0-7.8-0.4-8.8-14.7-11.9c-21.1-4.6-24.2-8.8-24.2-27.6c0-17.4,6.1-24.3,30.1-24.3c7.6,0,16.7,0.8,26.4,2.9l-2,16.5
	c-9.9-1.7-16.4-2.5-24.2-2.5c-8.8,0-10.7,1.6-10.7,8c0,8.4,0.4,8.5,14.1,11.8C178.9,49.3,180,53.9,180,71
	C180,88.3,174.4,96.8,148.1,96.8z"/>
<path class="st0" d="M274.1,95.5V8.4h19.6v87.1H274.1z"/>
<path class="st0" d="M346.1,25.8v69.7h-19.6V25.8H303V8.4h66.5v17.4H346.1z"/>
<g>
	<path class="st0" d="M396.8,31.3c-2.2,0-4.8-0.4-6.7-1.2l0.5-2.4c2.1,0.6,4.2,1,6.3,1c3.6,0,4.4-0.9,4.4-3.5c0-3.1,0-3.3-4.7-4.4
		c-5.5-1.2-6.1-2.3-6.1-6.9c0-3.9,1.6-5.8,7.2-5.8c2,0,4.3,0.3,6.1,0.7l-0.2,2.5c-1.8-0.4-3.9-0.6-5.8-0.6c-3.7,0-4.4,0.7-4.4,3.4
		c0,3.1,0,3.3,4.5,4.4c6,1.5,6.3,2.4,6.3,6.8C404.1,29.1,403,31.3,396.8,31.3z"/>
	<path class="st0" d="M414.9,31.3c-4.8,0-6.7-2.7-6.7-6.2v-4.8c0-3.5,1.9-6.2,6.7-6.2s6.7,2.7,6.7,6.2v4.8
		C421.6,28.6,419.7,31.3,414.9,31.3z M414.9,16.6c-2.6,0-3.9,1.2-3.9,3.6v5c0,2.4,1.3,3.6,3.9,3.6c2.6,0,3.9-1.2,3.9-3.6v-5
		C418.8,17.8,417.5,16.6,414.9,16.6z"/>
	<path class="st0" d="M428.9,14.5v12.6c0,1.1,0.5,1.5,1.6,1.5c1.2,0,3.8-0.7,5.5-1.7V14.5h2.8V31h-2.3l-0.3-1.4
		c-1.8,0.9-4.7,1.8-6.6,1.8c-2.6,0-3.6-1.7-3.6-4.2V14.5H428.9z"/>
	<path class="st0" d="M452.9,30.7c-1,0.4-2.2,0.6-3.5,0.6c-2.8,0-4.1-1-4.1-3.8V16.8h-2.9v-2.4h2.9v-4.1l2.8-0.4v4.5h4.7l-0.2,2.4
		h-4.4v10.2c0,1.2,0.2,1.8,1.7,1.8c0.8,0,1.6-0.1,2.6-0.4L452.9,30.7z"/>
	<path class="st0" d="M466.7,31V18.4c0-1.1-0.5-1.5-1.6-1.5c-1.2,0-3.8,0.8-5.5,1.7V31h-2.8V7.7l2.8-0.4v8.5
		c1.8-0.9,4.4-1.7,6.4-1.7c2.6,0,3.6,1.7,3.6,4.2V31H466.7z"/>
	<path class="st0" d="M480.8,28.9c1.6,0,3.4-0.3,5.2-0.8l0.4,2.3c-1.6,0.6-3.8,0.9-5.8,0.9c-4.9,0-6.5-2.3-6.5-6.1v-4.9
		c0-3.4,1.6-6.2,6.5-6.2c4.9,0,6.2,2.8,6.2,6.2v3.5h-9.8v1.4C476.8,27.8,477.5,28.9,480.8,28.9z M476.8,21.4h7.1v-1.4
		c0-2.3-0.8-3.6-3.5-3.6s-3.6,1.3-3.6,3.6V21.4z"/>
	<path class="st0" d="M498.7,16.7c-1.6,0.7-3.4,1.9-4.7,2.8V31h-2.8V14.5h2.5l0.2,2.3c1.2-0.9,2.9-2,4.5-2.6L498.7,16.7z"/>
	<path class="st0" d="M511.5,31V18.4c0-1.1-0.5-1.5-1.6-1.5c-1.2,0-3.8,0.7-5.5,1.7V31h-2.8V14.5h2.3l0.3,1.4
		c1.8-0.9,4.7-1.8,6.6-1.8c2.6,0,3.6,1.7,3.6,4.2V31H511.5z"/>
	<path class="st0" d="M544.4,31h-2.9l-1.9-5.4h-9.6l-1.8,5.4h-2.9l7.6-22.6h3.9L544.4,31z M534.8,10.5l-4,12.5h8.1L534.8,10.5z"/>
	<path class="st0" d="M548,31V7.7l2.8-0.4V31H548z"/>
	<path class="st0" d="M569.2,25.1c0,3.8-1.4,6.2-7,6.2c-1.5,0-4-0.2-5.9-0.6V7.7l2.8-0.4v8c1.2-0.6,3.1-1.2,5.2-1.2
		c3.4,0,4.8,2,4.8,5.2V25.1z M559.1,28.6c1.1,0.2,2.2,0.2,3.3,0.2c3.4,0,4-1.4,4-3.6v-6.1c0-1.7-0.7-2.5-2.7-2.5
		c-1.5,0-3.4,0.7-4.5,1.3V28.6z"/>
	<path class="st0" d="M579.8,28.9c1.6,0,3.4-0.3,5.2-0.8l0.4,2.3c-1.6,0.6-3.8,0.9-5.8,0.9c-4.9,0-6.5-2.3-6.5-6.1v-4.9
		c0-3.4,1.6-6.2,6.5-6.2c4.9,0,6.2,2.8,6.2,6.2v3.5h-9.8v1.4C575.9,27.8,576.6,28.9,579.8,28.9z M575.9,21.4h7.1v-1.4
		c0-2.3-0.8-3.6-3.5-3.6s-3.6,1.3-3.6,3.6V21.4z"/>
	<path class="st0" d="M597.7,16.7c-1.6,0.7-3.4,1.9-4.7,2.8V31h-2.8V14.5h2.5l0.2,2.3c1.2-0.9,2.9-2,4.5-2.6L597.7,16.7z"/>
	<path class="st0" d="M609.5,30.7c-1,0.4-2.2,0.6-3.5,0.6c-2.8,0-4.1-1-4.1-3.8V16.8H599v-2.4h2.9v-4.1l2.8-0.4v4.5h4.7l-0.2,2.4
		h-4.4v10.2c0,1.2,0.2,1.8,1.7,1.8c0.8,0,1.6-0.1,2.6-0.4L609.5,30.7z"/>
	<path class="st0" d="M625.1,31h-2.4l-0.2-1.2c-1.5,1-3.4,1.6-5.4,1.6c-3.1,0-4.4-1.8-4.4-4.7c0-3.4,1.7-4.6,5-4.6h4.4v-2.6
		c0-2.1-0.9-2.8-3.6-2.8c-1.6,0-3.7,0.3-4.9,0.5l-0.3-2.3c1.6-0.4,3.7-0.7,5.4-0.7c4.7,0,6.3,1.8,6.3,5.4V31z M622.2,24.3H618
		c-1.8,0-2.4,0.5-2.4,2.2c0,1.7,0.3,2.4,2.3,2.4c1.4,0,3-0.5,4.3-1.4V24.3z"/>
	<path class="st0" d="M394,63.2h-2.9V40.6h2.9V63.2z"/>
	<path class="st0" d="M409.7,63.2V50.6c0-1.1-0.5-1.5-1.6-1.5c-1.2,0-3.8,0.7-5.5,1.7v12.5h-2.8V46.7h2.3l0.3,1.4
		c1.8-0.9,4.7-1.8,6.6-1.8c2.6,0,3.6,1.7,3.6,4.2v12.6H409.7z"/>
	<path class="st0" d="M422.4,63.5c-1.7,0-3.9-0.4-5.3-0.9l0.4-2.2c1.4,0.4,3.3,0.7,4.7,0.7c2.6,0,3-0.5,3-2.2s-0.1-2-3.5-2.8
		c-4.1-1-4.5-1.9-4.5-5.3c0-3,1.4-4.4,5.7-4.4c1.6,0,3.3,0.2,4.7,0.6l-0.2,2.3c-1.4-0.3-3.2-0.5-4.6-0.5c-2.4,0-2.8,0.6-2.8,2.1
		c0,1.8,0,2.2,2.8,2.8c4.7,1.2,5.1,1.8,5.1,5C428.1,62,427.1,63.5,422.4,63.5z"/>
	<path class="st0" d="M441.3,62.9c-1,0.4-2.2,0.6-3.5,0.6c-2.8,0-4.1-1-4.1-3.8V49.1h-2.9v-2.4h2.9v-4.1l2.8-0.4v4.5h4.7l-0.2,2.4
		h-4.4v10.2c0,1.2,0.2,1.8,1.7,1.8c0.8,0,1.6-0.1,2.6-0.4L441.3,62.9z"/>
	<path class="st0" d="M445.2,44v-4.1h2.8V44H445.2z M445.2,63.2V46.7h2.8v16.5H445.2z"/>
	<path class="st0" d="M462.1,62.9c-1,0.4-2.2,0.6-3.5,0.6c-2.8,0-4.1-1-4.1-3.8V49.1h-2.9v-2.4h2.9v-4.1l2.8-0.4v4.5h4.7l-0.2,2.4
		h-4.4v10.2c0,1.2,0.2,1.8,1.7,1.8c0.8,0,1.6-0.1,2.6-0.4L462.1,62.9z"/>
	<path class="st0" d="M468.7,46.7v12.6c0,1.1,0.5,1.5,1.6,1.5c1.2,0,3.8-0.7,5.5-1.7V46.7h2.8v16.5h-2.3l-0.3-1.4
		c-1.8,0.9-4.7,1.8-6.6,1.8c-2.6,0-3.6-1.7-3.6-4.2V46.7H468.7z"/>
	<path class="st0" d="M492.7,62.9c-1,0.4-2.2,0.6-3.5,0.6c-2.8,0-4.1-1-4.1-3.8V49.1h-2.9v-2.4h2.9v-4.1l2.8-0.4v4.5h4.7l-0.2,2.4
		H488v10.2c0,1.2,0.2,1.8,1.7,1.8c0.8,0,1.6-0.1,2.6-0.4L492.7,62.9z"/>
	<path class="st0" d="M502.5,61.1c1.6,0,3.4-0.3,5.2-0.8l0.4,2.3c-1.6,0.6-3.8,0.9-5.8,0.9c-4.9,0-6.5-2.3-6.5-6.1v-4.9
		c0-3.4,1.6-6.2,6.5-6.2c4.9,0,6.2,2.8,6.2,6.2V56h-9.8v1.4C498.6,60,499.3,61.1,502.5,61.1z M498.6,53.7h7.1v-1.4
		c0-2.3-0.8-3.6-3.5-3.6s-3.6,1.3-3.6,3.6V53.7z"/>
	<path class="st0" d="M396.6,95.8c-4.8,0-6.7-2.7-6.7-6.2v-4.8c0-3.5,1.9-6.2,6.7-6.2s6.7,2.7,6.7,6.2v4.8
		C403.3,93,401.4,95.8,396.6,95.8z M396.6,81.1c-2.6,0-3.9,1.2-3.9,3.6v5c0,2.4,1.3,3.6,3.9,3.6c2.6,0,3.9-1.2,3.9-3.6v-5
		C400.5,82.3,399.2,81.1,396.6,81.1z"/>
	<path class="st0" d="M416.9,74.2c-0.9-0.2-2-0.3-2.7-0.3c-1.8,0-2.2,0.6-2.2,2.3v2.8h4.7l-0.2,2.4H412v14.1h-2.8V81.3h-2.9v-2.4
		h2.9v-3c0-2.9,1.6-4.4,4.7-4.4c1.1,0,2.2,0.1,3.4,0.5L416.9,74.2z"/>
	<path class="st0" d="M431.9,75.5h-6.7v-2.6h16.4v2.6h-6.7v20h-2.9V75.5z"/>
	<path class="st0" d="M448.4,93.3c1.6,0,3.4-0.3,5.2-0.8l0.4,2.3c-1.6,0.6-3.8,0.9-5.8,0.9c-4.9,0-6.5-2.3-6.5-6.1v-4.9
		c0-3.4,1.6-6.2,6.5-6.2c4.9,0,6.2,2.8,6.2,6.2v3.5h-9.8v1.4C444.5,92.3,445.2,93.3,448.4,93.3z M444.5,85.9h7.1v-1.4
		c0-2.3-0.8-3.6-3.5-3.6s-3.6,1.3-3.6,3.6V85.9z"/>
	<path class="st0" d="M457.8,89.8v-5.2c0-3.8,1.4-6,6.6-6c1.5,0,3.1,0.2,3.9,0.5l-0.2,2.4c-1.3-0.3-2.5-0.4-3.6-0.4
		c-2.8,0-3.8,0.8-3.8,3.4v5.4c0,2.6,0.9,3.4,3.8,3.4c1.2,0,2.3-0.1,3.6-0.4l0.3,2.4c-0.8,0.3-2.5,0.5-4,0.5
		C459,95.8,457.8,93.6,457.8,89.8z"/>
	<path class="st0" d="M482.6,95.4V82.8c0-1.1-0.5-1.5-1.6-1.5c-1.2,0-3.8,0.8-5.5,1.7v12.4h-2.8V72.2l2.8-0.4v8.5
		c1.8-0.9,4.4-1.7,6.4-1.7c2.6,0,3.6,1.7,3.6,4.2v12.6H482.6z"/>
	<path class="st0" d="M500.7,95.4V82.8c0-1.1-0.5-1.5-1.6-1.5c-1.2,0-3.8,0.7-5.5,1.7v12.5h-2.8V78.9h2.3l0.3,1.4
		c1.8-0.9,4.7-1.8,6.6-1.8c2.6,0,3.6,1.7,3.6,4.2v12.6H500.7z"/>
	<path class="st0" d="M514.6,95.8c-4.8,0-6.7-2.7-6.7-6.2v-4.8c0-3.5,1.9-6.2,6.7-6.2s6.7,2.7,6.7,6.2v4.8
		C521.3,93,519.4,95.8,514.6,95.8z M514.6,81.1c-2.6,0-3.9,1.2-3.9,3.6v5c0,2.4,1.3,3.6,3.9,3.6c2.6,0,3.9-1.2,3.9-3.6v-5
		C518.5,82.3,517.2,81.1,514.6,81.1z"/>
	<path class="st0" d="M525.9,95.4V72.2l2.8-0.4v23.7H525.9z"/>
	<path class="st0" d="M540,95.8c-4.8,0-6.7-2.7-6.7-6.2v-4.8c0-3.5,1.9-6.2,6.7-6.2s6.7,2.7,6.7,6.2v4.8
		C546.8,93,544.9,95.8,540,95.8z M540,81.1c-2.6,0-3.9,1.2-3.9,3.6v5c0,2.4,1.3,3.6,3.9,3.6c2.6,0,3.9-1.2,3.9-3.6v-5
		C543.9,82.3,542.6,81.1,540,81.1z"/>
	<path class="st0" d="M564.1,80.6l-2,0.4c0.6,0.8,0.9,2,0.9,3.3V85c0,3.6-2.2,5.6-6.5,5.6c-0.6,0-1.2,0-1.7-0.1
		c-0.6,0.5-1.2,1.1-1.2,1.8c0,0.6,0.3,0.9,1.1,0.9c1.7,0.2,2.6,0.3,4.7,0.5c3,0.3,4.1,1.5,4.1,4c0,3.6-1.3,4.8-7.2,4.8
		c-1.5,0-4.1-0.3-6-0.8l0.4-2.2c1.7,0.4,3.9,0.7,5.5,0.7c4.2,0,4.6-0.6,4.6-2.3c0-1.4-0.5-1.6-2.4-1.8c-1.8-0.2-2.4-0.2-4.4-0.4
		c-2.4-0.2-3.2-1.5-3.2-3c0-1.2,0.7-2.2,1.6-2.9c-1.6-0.9-2.3-2.5-2.3-4.7v-0.7c0-3.6,1.7-5.7,6.4-5.7c0.8,0,2,0.1,2.8,0.3h4.7V80.6
		z M556.6,80.9c-2.7,0-3.8,0.9-3.8,3.4V85c0,2.5,1.1,3.3,3.8,3.3s3.8-1.1,3.8-3.3v-0.7C560.4,81.9,559.3,80.9,556.6,80.9z"/>
	<path class="st0" d="M572.6,95.4h-1.2L566,78.9h2.8l4.5,14.2l4.6-14.2h2.8l-5.5,16.5l-2.3,6.7h-2.7L572.6,95.4z"/>
</g>
<path class="st1" d="M27.5,57c-7.8-3.7-16.7-6.3-20-8.1c-2-1.1-2.6-4.6-1.6-7.8c1.7-5.1,4.7-7.9,6.8-7.9c1.4,0,2.1,1.2,2.1,1.2
	s2.4-9.4,2.7-10.5c-5.9,0-12,7.2-15.5,17.6C-1.1,50.9-0.5,55.7,3.1,59c3.6,3.3,13.5,7.4,17.9,9.4c7.3,3.2,9.4,6.2,10.3,9.2
	c1,3.1,0.5,7.5-2.1,9.8c4.3-3.4,8-10.8,12.5-17.6c0.1-0.2,0.2-0.4,0.3-0.5C39.4,65.1,34.2,60.1,27.5,57z"/>
<path class="st2" d="M77.7,41c-5.8-7.1-10.3-11.7-10.3-17c0-4.1,3-6.7,6-7.6c-4.8,0.8-11.4,2.8-16.9,4.6c-0.6,0.2-1.3,0.4-2,0.7
	c0,0,0,0,0,0v0c-0.4,1.2-0.6,2.5-0.6,4c0,7.2,7.3,16.2,11.9,22.4c4.6,6.2,14.5,16.8,14.5,24.4c0,6.9-4.7,10.7-10.4,10.7
	c-9.4,0-11-10.8-11-10.8l-9.2,13.1c0,0,8,11.3,20.4,11.3c13.8,0,24.5-11.7,24.5-24.5C94.6,60.4,83.5,48.1,77.7,41z"/>
<path class="st3" d="M76.3,6.9c-5.3,0-13.4,2.5-20.3,4.5c-6.9,2.1-16.5,5.7-21.1,5.7c-3.2,0-4.1-2.5-3.3-4.5
	c-1.2,2.7-2.6,8.5-3.8,14.2c1.3,0.5,3.3,0.9,5.2,0.9c5.4,0,16.5-4.4,23.5-6.7s15.8-4.9,20.3-4.9c4.5,0,10.2,3.2,10.2,9
	c0,6.4-5.7,8-8.9,8c-2.2,0-4.3-0.3-4.3-0.3L84.7,46c0,0,15-5.3,15-18.3C99.7,15.5,87.9,6.9,76.3,6.9z"/>
<path class="st4" d="M58.8,8.3c0,0-0.1-8.3-9-8.3C35.2,0,26.7,8.5,23.5,14.5c-3.1,5.8-5.2,15.1-6.5,20.6c-1.6,6.4-4,14.9-9.2,14
	c0,0,0,0,0,0c2.4,1.2,6.9,2.7,12,4.6c2.3-3.6,4.5-9.3,5.7-14.7c1.3-6.3,3.9-21.6,6.2-26.4c2.3-4.8,7.2-7,11.3-7
	c6.4,0,2.9,6.8,2.9,6.8L58.8,8.3z"/>
<path class="st0" d="M79.3,67.4L79.3,67.4c-0.1-0.4-0.3-0.7-0.5-1.1c-0.1-0.3-0.3-0.5-0.4-0.8c-3.1-6.2-9.1-12.8-12.4-17.3
	c-10.9,1-18.4,12.4-24.3,21.5C35.7,79,31,89.2,24.5,89.2c-4,0-8.6-4.7-8.6-11.1c0-6,4.8-7.4,4.8-7.4l-10.2-4.6c0,0-2.8,3.2-2.8,10.9
	c0,11.2,9.3,24.2,20.4,24.2c11.3,0,15.9-11.3,21.8-19.9c8.3-12.2,13.3-19.4,20.6-19.4C73,61.9,77.3,63.5,79.3,67.4L79.3,67.4z"/>
<path class="st5" d="M70.8,17.7C70.8,17.7,70.8,17.7,70.8,17.7L70.8,17.7c0.2-0.1,0.4-0.3,0.6-0.4c0,0,0,0,0,0c0,0,0,0,0.1,0
	c0,0,0,0,0,0l0,0c0.2-0.1,0.4-0.2,0.6-0.3c0,0,0.1,0,0.1,0l0,0l0,0c0.2-0.1,0.3-0.1,0.5-0.2l0,0c0,0,0,0,0,0c0.1,0,0.1,0,0.2-0.1
	l0,0c0.2-0.1,0.4-0.2,0.6-0.2c0,0,0,0,0,0l0,0c0,0,0,0,0,0c-1.2,0.2-2.5,0.5-3.9,0.8c-0.1,0-0.1,0-0.2,0c-1.7,0.4-3.4,0.9-5.2,1.4
	c0,0-0.1,0-0.1,0c-0.7,0.2-1.4,0.4-2.1,0.6c-0.2,0.1-0.5,0.1-0.7,0.2c-0.7,0.2-1.4,0.4-2.1,0.6c-0.3,0.1-0.6,0.2-0.9,0.3
	c-0.6,0.2-1.2,0.4-1.8,0.6c-0.6,0.2-1.3,0.4-2,0.7c0,0,0,0,0,0v0C54.2,22.8,54,24,54,25.3C58,23.5,66,20,70.8,17.7z"/>
<path d="M31.6,12.6"/>
<path class="st6" d="M19.8,53.7L19.8,53.7c0.5-0.8,1-1.8,1.5-2.8c-4.6-0.7-13.4-1.8-13.5-1.9c0,0,0,0,0,0c0,0,0,0,0,0
	c0,0,0.1,0,0.1,0c0,0,0,0,0.1,0c0,0,0.1,0,0.1,0c0.1,0.1,0.2,0.1,0.3,0.2c0.1,0.1,0.3,0.1,0.4,0.2c0.2,0.1,0.4,0.2,0.6,0.2
	c0.2,0.1,0.4,0.2,0.6,0.2c0.2,0.1,0.4,0.2,0.6,0.2c0.1,0,0.1,0.1,0.2,0.1c0.1,0,0.2,0.1,0.4,0.1c0,0,0,0,0.1,0
	c0.1,0,0.2,0.1,0.3,0.1c0.1,0,0.1,0,0.2,0.1c0.1,0,0.1,0.1,0.2,0.1c0.1,0,0.2,0.1,0.3,0.1c0.1,0,0.1,0,0.2,0.1
	c0.1,0,0.2,0.1,0.3,0.1c0.1,0,0.2,0.1,0.3,0.1c0.1,0.1,0.3,0.1,0.4,0.2c0,0,0,0,0,0c0.1,0,0.2,0.1,0.3,0.1c0.2,0.1,0.4,0.1,0.6,0.2
	c0.1,0,0.1,0,0.2,0.1c0.3,0.1,0.5,0.2,0.8,0.3c0.3,0.1,0.6,0.2,0.9,0.3c0.6,0.2,1.2,0.4,1.8,0.7c0,0,0,0,0,0
	C18.5,53.3,19.1,53.5,19.8,53.7L19.8,53.7L19.8,53.7z"/>
<path class="st5" d="M41.5,68.5c-0.1-0.2-0.2-0.3-0.3-0.5c-0.1-0.1-0.1-0.1-0.2-0.2c-0.2-0.2-0.3-0.4-0.5-0.6c0,0,0,0,0-0.1
	c-0.2-0.2-0.4-0.5-0.6-0.7c-2,3.9-7.1,15.1-8.9,18.2c-0.4,1-1,1.9-1.8,2.7l0,0c0,0,0,0,0,0c0.5-0.4,1.1-0.9,1.6-1.4
	c0.3-0.3,0.5-0.6,0.8-0.8c0.2-0.3,0.5-0.5,0.7-0.8c0.1-0.1,0.1-0.2,0.2-0.3c0.1-0.1,0.2-0.2,0.2-0.3c0.1-0.1,0.2-0.2,0.3-0.3
	c0.1-0.1,0.1-0.2,0.2-0.3c0.5-0.6,0.9-1.3,1.4-1.9c0,0,0,0,0,0c0.1-0.1,0.1-0.2,0.2-0.3c0.1-0.1,0.2-0.3,0.3-0.4
	c0.1-0.1,0.1-0.2,0.2-0.3c0.1-0.1,0.1-0.2,0.2-0.3c0.5-0.7,1-1.5,1.5-2.3c0.4-0.6,0.7-1.2,1.1-1.8c0,0,0,0,0,0c0,0,0,0,0,0
	c0,0,0,0,0,0c0,0,0,0,0,0c0,0,0,0,0,0c0.4-0.6,0.8-1.3,1.2-1.9l0,0c0,0,0,0,0,0l0,0c0,0,0,0,0,0c0,0,0,0,0,0l0,0c0,0,0,0,0,0l0,0
	c0,0,0,0,0,0c0.3-0.6,0.7-1.1,1-1.7l0,0c0,0,0,0,0,0l0,0l0,0c0,0,0,0,0,0c0.1-0.1,0.2-0.3,0.3-0.4l0,0c0,0,0,0,0,0l0,0
	c0.4-0.6,0.7-1.2,1.1-1.7c0.1-0.2,0.2-0.4,0.3-0.5C41.8,69,41.7,68.8,41.5,68.5z"/>
<path class="st6" d="M77.3,64.8c0.1,0.1,0.3,0.3,0.4,0.4c0,0,0,0,0,0c0.1,0.1,0.3,0.3,0.4,0.5l0,0c0,0,0.1,0.1,0.1,0.2l0,0l0,0
	c0.1,0.1,0.2,0.2,0.3,0.4c0.1,0.2,0.2,0.3,0.3,0.5c0,0,0,0,0,0l0,0c0,0,0.1,0.1,0.1,0.1c0-0.1,0-0.2,0-0.2c0-0.1-0.1-0.1-0.1-0.2
	c-0.1-0.3-0.3-0.5-0.4-0.8l0,0c0-0.1-0.1-0.2-0.2-0.3c-0.2-0.3-0.3-0.6-0.5-0.9c-0.1-0.2-0.2-0.4-0.3-0.5c-0.1-0.2-0.2-0.4-0.4-0.6
	c-0.1-0.2-0.3-0.4-0.4-0.6c-0.1-0.2-0.2-0.4-0.3-0.5c-0.1-0.2-0.2-0.4-0.4-0.6c-0.1-0.2-0.3-0.4-0.4-0.6c-0.1-0.2-0.2-0.3-0.3-0.5
	c-0.2-0.2-0.3-0.4-0.5-0.7c-0.1-0.2-0.3-0.4-0.4-0.6c-0.1-0.2-0.3-0.4-0.4-0.6c-0.4-0.5-0.8-1.1-1.2-1.6c-0.4-0.6-0.9-1.2-1.3-1.7
	c-0.6-0.7-1.1-1.4-1.7-2.1c0,0-0.1-0.1-0.1-0.1c-0.4-0.5-0.8-1-1.2-1.5c-0.5-0.6-0.9-1.1-1.3-1.7c-0.4-0.5-0.8-1.1-1.2-1.6
	c-1.2,0.1-2.4,0.3-3.5,0.7C66.1,52.7,74.3,61.2,77.3,64.8z"/>
<path class="st6" d="M31.5,15.2C31.5,15.2,31.5,15.2,31.5,15.2c-0.1-0.4-0.2-0.8-0.2-1.2c0,0,0-0.1,0-0.1c0-0.1,0-0.1,0-0.2
	c0-0.1,0-0.1,0-0.2c0-0.1,0-0.1,0-0.2c0-0.1,0-0.1,0.1-0.2c0,0,0-0.1,0-0.1c0-0.1,0.1-0.2,0.1-0.4c-1.2,2.7-2.6,8.5-3.8,14.2
	c0.8,0.3,1.9,0.6,3.1,0.7C31,24.1,31.3,18.3,31.5,15.2z"/>
<path class="st0" d="M264.6,95.5L237.9,8.4h-26.2l-26.6,87.1h15.6v0h4.8c3.7-3.2,9.1-8.5,14.5-11.5c8-4.4,14.8-5,19.6-4.5l4.4,16
	H264.6z M225.3,62.3c-3.8,1-8.1,3.1-12,5.4l11.6-42l9.8,35.5C231.6,61.1,228.4,61.5,225.3,62.3z"/>
<path class="st6" d="M239.7,79.2l-5-18.1c-1.9,0-3.8,0.1-5.7,0.4L239.7,79.2z"/>
</svg>
