<?xml version="1.0" encoding="utf-8"?>
<!-- Generator: Adobe Illustrator 24.2.1, SVG Export Plug-In . SVG Version: 6.00 Build 0)  -->
<svg version="1.1" id="Layer_1" xmlns="http://www.w3.org/2000/svg" xmlns:xlink="http://www.w3.org/1999/xlink" x="0px" y="0px"
	 viewBox="0 0 369.5 101.2" style="enable-background:new 0 0 369.5 101.2;" xml:space="preserve">
<style type="text/css">
	.st0{fill:#FFFFFF;}
	.st1{opacity:0.3;enable-background:new    ;}
</style>
<path class="st0" d="M148.1,96.8c-10.1,0-20.7-2.2-28.1-5.6l3.3-15.2c8,2.5,16.1,4.2,25.1,4.2c10.1,0,12-2,12-9.3
	c0-7.8-0.4-8.8-14.7-11.9c-21.1-4.6-24.2-8.8-24.2-27.6c0-17.4,6.1-24.3,30.1-24.3c7.6,0,16.7,0.8,26.4,2.9l-2,16.5
	c-9.9-1.7-16.4-2.5-24.2-2.5c-8.8,0-10.7,1.6-10.7,8c0,8.4,0.4,8.5,14.1,11.8C178.9,49.3,180,53.9,180,71
	C180,88.3,174.4,96.8,148.1,96.8z"/>
<path class="st0" d="M274.1,95.5V8.4h19.6v87.1H274.1z"/>
<path class="st0" d="M346.1,25.8v69.7h-19.6V25.8H303V8.4h66.5v17.4H346.1z"/>
<path class="st0" d="M27.5,57c-7.8-3.7-16.7-6.3-20-8.1c-2-1.1-2.6-4.6-1.6-7.8c1.7-5.1,4.7-7.9,6.8-7.9c1.4,0,2.1,1.2,2.1,1.2
	s2.4-9.4,2.7-10.5c-5.9,0-12,7.2-15.5,17.6C-1.1,50.9-0.5,55.7,3.1,59s13.5,7.4,17.9,9.4c7.3,3.2,9.4,6.2,10.3,9.2
	c1,3.1,0.5,7.5-2.1,9.8c4.3-3.4,8-10.8,12.5-17.6c0.1-0.2,0.2-0.4,0.3-0.5C39.4,65.1,34.2,60.1,27.5,57z"/>
<path class="st0" d="M77.7,41c-5.8-7.1-10.3-11.7-10.3-17c0-4.1,3-6.7,6-7.6C68.6,17.2,62,19.2,56.5,21c-0.6,0.2-1.3,0.4-2,0.7l0,0
	l0,0c-0.4,1.2-0.6,2.5-0.6,4c0,7.2,7.3,16.2,11.9,22.4s14.5,16.8,14.5,24.4c0,6.9-4.7,10.7-10.4,10.7c-9.4,0-11-10.8-11-10.8
	l-9.2,13.1c0,0,8,11.3,20.4,11.3c13.8,0,24.5-11.7,24.5-24.5C94.6,60.4,83.5,48.1,77.7,41z"/>
<path class="st0" d="M76.3,6.9C71,6.9,62.9,9.4,56,11.4c-6.9,2.1-16.5,5.7-21.1,5.7c-3.2,0-4.1-2.5-3.3-4.5
	c-1.2,2.7-2.6,8.5-3.8,14.2c1.3,0.5,3.3,0.9,5.2,0.9c5.4,0,16.5-4.4,23.5-6.7s15.8-4.9,20.3-4.9s10.2,3.2,10.2,9c0,6.4-5.7,8-8.9,8
	c-2.2,0-4.3-0.3-4.3-0.3L84.7,46c0,0,15-5.3,15-18.3C99.7,15.5,87.9,6.9,76.3,6.9z"/>
<path class="st0" d="M58.8,8.3c0,0-0.1-8.3-9-8.3C35.2,0,26.7,8.5,23.5,14.5c-3.1,5.8-5.2,15.1-6.5,20.6c-1.6,6.4-4,14.9-9.2,14l0,0
	c2.4,1.2,6.9,2.7,12,4.6c2.3-3.6,4.5-9.3,5.7-14.7c1.3-6.3,3.9-21.6,6.2-26.4s7.2-7,11.3-7c6.4,0,2.9,6.8,2.9,6.8L58.8,8.3z"/>
<path class="st0" d="M79.3,67.4L79.3,67.4c-0.1-0.4-0.3-0.7-0.5-1.1c-0.1-0.3-0.3-0.5-0.4-0.8c-3.1-6.2-9.1-12.8-12.4-17.3
	c-10.9,1-18.4,12.4-24.3,21.5C35.7,79,31,89.2,24.5,89.2c-4,0-8.6-4.7-8.6-11.1c0-6,4.8-7.4,4.8-7.4l-10.2-4.6c0,0-2.8,3.2-2.8,10.9
	c0,11.2,9.3,24.2,20.4,24.2c11.3,0,15.9-11.3,21.8-19.9c8.3-12.2,13.3-19.4,20.6-19.4C73,61.9,77.3,63.5,79.3,67.4L79.3,67.4z"/>
<path class="st1" d="M70.8,17.7L70.8,17.7L70.8,17.7c0.2-0.1,0.4-0.3,0.6-0.4l0,0c0,0,0,0,0.1,0l0,0l0,0c0.2-0.1,0.4-0.2,0.6-0.3
	h0.1l0,0l0,0c0.2-0.1,0.3-0.1,0.5-0.2l0,0l0,0c0.1,0,0.1,0,0.2-0.1l0,0c0.2-0.1,0.4-0.2,0.6-0.2l0,0l0,0l0,0
	c-1.2,0.2-2.5,0.5-3.9,0.8c-0.1,0-0.1,0-0.2,0c-1.7,0.4-3.4,0.9-5.2,1.4h-0.1c-0.7,0.2-1.4,0.4-2.1,0.6c-0.2,0.1-0.5,0.1-0.7,0.2
	c-0.7,0.2-1.4,0.4-2.1,0.6c-0.3,0.1-0.6,0.2-0.9,0.3c-0.6,0.2-1.2,0.4-1.8,0.6s-1.3,0.4-2,0.7l0,0l0,0C54.2,22.8,54,24,54,25.3
	C58,23.5,66,20,70.8,17.7z"/>
<path d="M31.6,12.6"/>
<path class="st1" d="M19.8,53.7L19.8,53.7c0.5-0.8,1-1.8,1.5-2.8C16.7,50.2,7.9,49.1,7.8,49l0,0l0,0h0.1c0,0,0,0,0.1,0h0.1
	c0.1,0.1,0.2,0.1,0.3,0.2c0.1,0.1,0.3,0.1,0.4,0.2c0.2,0.1,0.4,0.2,0.6,0.2c0.2,0.1,0.4,0.2,0.6,0.2c0.2,0.1,0.4,0.2,0.6,0.2
	c0.1,0,0.1,0.1,0.2,0.1c0.1,0,0.2,0.1,0.4,0.1c0,0,0,0,0.1,0s0.2,0.1,0.3,0.1s0.1,0,0.2,0.1c0.1,0,0.1,0.1,0.2,0.1
	c0.1,0,0.2,0.1,0.3,0.1s0.1,0,0.2,0.1c0.1,0,0.2,0.1,0.3,0.1s0.2,0.1,0.3,0.1c0.1,0.1,0.3,0.1,0.4,0.2l0,0c0.1,0,0.2,0.1,0.3,0.1
	c0.2,0.1,0.4,0.1,0.6,0.2c0.1,0,0.1,0,0.2,0.1c0.3,0.1,0.5,0.2,0.8,0.3s0.6,0.2,0.9,0.3c0.6,0.2,1.2,0.4,1.8,0.7l0,0
	C18.5,53.3,19.1,53.5,19.8,53.7L19.8,53.7L19.8,53.7z"/>
<path class="st1" d="M41.5,68.5c-0.1-0.2-0.2-0.3-0.3-0.5c-0.1-0.1-0.1-0.1-0.2-0.2c-0.2-0.2-0.3-0.4-0.5-0.6c0,0,0,0,0-0.1
	c-0.2-0.2-0.4-0.5-0.6-0.7c-2,3.9-7.1,15.1-8.9,18.2c-0.4,1-1,1.9-1.8,2.7l0,0l0,0c0.5-0.4,1.1-0.9,1.6-1.4c0.3-0.3,0.5-0.6,0.8-0.8
	c0.2-0.3,0.5-0.5,0.7-0.8c0.1-0.1,0.1-0.2,0.2-0.3c0.1-0.1,0.2-0.2,0.2-0.3c0.1-0.1,0.2-0.2,0.3-0.3c0.1-0.1,0.1-0.2,0.2-0.3
	c0.5-0.6,0.9-1.3,1.4-1.9l0,0c0.1-0.1,0.1-0.2,0.2-0.3c0.1-0.1,0.2-0.3,0.3-0.4s0.1-0.2,0.2-0.3c0.1-0.1,0.1-0.2,0.2-0.3
	c0.5-0.7,1-1.5,1.5-2.3c0.4-0.6,0.7-1.2,1.1-1.8l0,0l0,0l0,0l0,0l0,0c0.4-0.6,0.8-1.3,1.2-1.9l0,0l0,0l0,0l0,0l0,0l0,0l0,0l0,0l0,0
	c0.3-0.6,0.7-1.1,1-1.7l0,0l0,0l0,0l0,0l0,0c0.1-0.1,0.2-0.3,0.3-0.4l0,0l0,0l0,0c0.4-0.6,0.7-1.2,1.1-1.7c0.1-0.2,0.2-0.4,0.3-0.5
	C41.8,69,41.7,68.8,41.5,68.5z"/>
<path class="st1" d="M77.3,64.8c0.1,0.1,0.3,0.3,0.4,0.4l0,0c0.1,0.1,0.3,0.3,0.4,0.5l0,0c0,0,0.1,0.1,0.1,0.2l0,0l0,0
	c0.1,0.1,0.2,0.2,0.3,0.4c0.1,0.2,0.2,0.3,0.3,0.5l0,0l0,0l0.1,0.1c0-0.1,0-0.2,0-0.2c0-0.1-0.1-0.1-0.1-0.2
	c-0.1-0.3-0.3-0.5-0.4-0.8l0,0c0-0.1-0.1-0.2-0.2-0.3c-0.2-0.3-0.3-0.6-0.5-0.9c-0.1-0.2-0.2-0.4-0.3-0.5c-0.1-0.2-0.2-0.4-0.4-0.6
	c-0.1-0.2-0.3-0.4-0.4-0.6c-0.1-0.2-0.2-0.4-0.3-0.5c-0.1-0.2-0.2-0.4-0.4-0.6c-0.1-0.2-0.3-0.4-0.4-0.6c-0.1-0.2-0.2-0.3-0.3-0.5
	c-0.2-0.2-0.3-0.4-0.5-0.7c-0.1-0.2-0.3-0.4-0.4-0.6c-0.1-0.2-0.3-0.4-0.4-0.6c-0.4-0.5-0.8-1.1-1.2-1.6c-0.4-0.6-0.9-1.2-1.3-1.7
	c-0.6-0.7-1.1-1.4-1.7-2.1l-0.1-0.1c-0.4-0.5-0.8-1-1.2-1.5c-0.5-0.6-0.9-1.1-1.3-1.7c-0.4-0.5-0.8-1.1-1.2-1.6
	c-1.2,0.1-2.4,0.3-3.5,0.7C66.1,52.7,74.3,61.2,77.3,64.8z"/>
<path class="st1" d="M31.5,15.2L31.5,15.2c-0.1-0.4-0.2-0.8-0.2-1.2v-0.1c0-0.1,0-0.1,0-0.2c0-0.1,0-0.1,0-0.2c0-0.1,0-0.1,0-0.2
	c0-0.1,0-0.1,0.1-0.2V13c0-0.1,0.1-0.2,0.1-0.4c-1.2,2.7-2.6,8.5-3.8,14.2c0.8,0.3,1.9,0.6,3.1,0.7C31,24.1,31.3,18.3,31.5,15.2z"/>
<path class="st0" d="M264.6,95.5L237.9,8.4h-26.2l-26.6,87.1h15.6l0,0h4.8c3.7-3.2,9.1-8.5,14.5-11.5c8-4.4,14.8-5,19.6-4.5l4.4,16
	H264.6z M225.3,62.3c-3.8,1-8.1,3.1-12,5.4l11.6-42l9.8,35.5C231.6,61.1,228.4,61.5,225.3,62.3z"/>
<path class="st1" d="M239.7,79.2l-5-18.1c-1.9,0-3.8,0.1-5.7,0.4L239.7,79.2z"/>
</svg>
