<svg id="Layer_1" data-name="Layer 1" xmlns="http://www.w3.org/2000/svg" viewBox="0 0 1000 1000"><defs><style>.cls-1,.cls-4{fill:none;stroke-width:20px;}.cls-1,.cls-2,.cls-4{stroke:#a61e2f;stroke-linejoin:round;}.cls-1,.cls-2,.cls-5{fill-rule:evenodd;}.cls-2,.cls-3,.cls-5{fill:#a61e2f;}.cls-2{stroke-width:33px;}</style></defs><polyline class="cls-1" points="500.4 499.67 504.6 495.47 113.95 886.12 71.91 844.09 420.53 495.47 419.45 496.55 419.68 494.63 420.53 495.47 72.15 147.1 114.19 105.06 504.6 495.47 504.6 495.47"/><polyline class="cls-2" points="300.8 496.39 301.63 495.56 224.11 573.09 215.76 564.74 284.95 495.56 284.74 495.77 284.78 495.39 284.95 495.56 215.81 426.42 224.15 418.07 301.63 495.56 301.63 495.56"/><polyline class="cls-2" points="169.93 370.38 170.76 369.55 93.23 447.08 84.89 438.74 154.08 369.55 153.87 369.77 153.91 369.38 154.08 369.55 84.94 300.41 93.28 292.07 170.76 369.55 170.76 369.55"/><polyline class="cls-2" points="169.93 622.18 170.76 621.35 93.23 698.88 84.89 690.54 154.08 621.35 153.87 621.56 153.91 621.18 154.08 621.35 84.94 552.21 93.28 543.87 170.76 621.35 170.76 621.35"/><polygon class="cls-3" points="655.02 635.82 722.09 598.5 788.81 636.43 789.22 547.58 655.43 546.96 655.02 635.82"/><line class="cls-4" x1="559.08" y1="383.18" x2="386.38" y2="383.18"/><line class="cls-4" x1="559.08" y1="458.12" x2="461.33" y2="458.12"/><line class="cls-4" x1="559.08" y1="533.06" x2="472.93" y2="533.06"/><line class="cls-4" x1="559.08" y1="608.01" x2="397.99" y2="608.01"/><path class="cls-5" d="M712,352.7l-22.86,48a7.07,7.07,0,0,1-5.27,3.94l-52.53,8.4a7.07,7.07,0,0,0-3.75,12.11l38.63,36.59a7.05,7.05,0,0,1,2.12,6.22l-8.24,52.56a7.06,7.06,0,0,0,10.35,7.3l46.74-25.42a7,7,0,0,1,6.57-.1l47.44,24.08a7.07,7.07,0,0,0,10.15-7.59l-9.75-52.3a7.08,7.08,0,0,1,1.95-6.29l37.56-37.67a7.07,7.07,0,0,0-4.09-12l-52.75-6.89a7.09,7.09,0,0,1-5.38-3.79l-24.22-47.37A7.07,7.07,0,0,0,712,352.7Z"/><polygon class="cls-1" points="253.49 244.36 504.6 495.47 253.26 746.81 902.03 746.81 902.03 244.36 253.49 244.36"/><polyline class="cls-1" points="500.4 499.67 504.6 495.47 113.95 886.12 71.91 844.09 420.53 495.47 419.45 496.55 419.68 494.63 420.53 495.47 72.15 147.1 114.19 105.06 504.6 495.47 504.6 495.47"/></svg>