<?xml version="1.0" encoding="utf-8"?>
<!-- Generator: Adobe Illustrator 24.1.2, SVG Export Plug-In . SVG Version: 6.00 Build 0)  -->
<svg version="1.1" xmlns="http://www.w3.org/2000/svg" xmlns:xlink="http://www.w3.org/1999/xlink" x="0px" y="0px"
	 viewBox="0 0 1000 1000" style="enable-background:new 0 0 1000 1000;" xml:space="preserve">
<style type="text/css">
	.st0{fill-rule:evenodd;clip-rule:evenodd;fill:none;stroke:#A61E2F;stroke-width:20;stroke-linejoin:round;stroke-miterlimit:10;}
	.st1{fill:#E6E7E8;}
	.st2{clip-path:url(#SVGID_10_);}
	.st3{clip-path:url(#SVGID_13_);}
	.st4{clip-path:url(#SVGID_14_);fill:#80D25B;}
	.st5{clip-path:url(#SVGID_17_);}
	.st6{clip-path:url(#SVGID_18_);fill:#80D25B;}
	.st7{clip-path:url(#SVGID_21_);}
	.st8{clip-path:url(#SVGID_22_);fill:#159393;}
	.st9{clip-path:url(#SVGID_25_);}
	.st10{clip-path:url(#SVGID_26_);fill:#159393;}
	.st11{fill:#BB7473;}
	.st12{clip-path:url(#SVGID_29_);}
	.st13{clip-path:url(#SVGID_30_);fill:#159393;}
	.st14{clip-path:url(#SVGID_32_);fill:#959595;}
	.st15{clip-path:url(#SVGID_35_);}
	.st16{clip-path:url(#SVGID_36_);fill:#808285;}
	.st17{clip-path:url(#SVGID_38_);fill:#BB7473;}
	.st18{clip-path:url(#SVGID_38_);fill:#00AAE7;}
	.st19{clip-path:url(#SVGID_40_);}
	.st20{clip-path:url(#SVGID_43_);}
	.st21{clip-path:url(#SVGID_44_);fill:#80D25B;}
	.st22{clip-path:url(#SVGID_46_);fill:#959595;}
	.st23{fill:#595959;}
	.st24{clip-path:url(#SVGID_48_);fill:#595959;}
	.st25{clip-path:url(#SVGID_50_);fill:#959595;}
	.st26{clip-path:url(#SVGID_52_);fill:#BB7473;}
	.st27{clip-path:url(#SVGID_55_);}
	.st28{clip-path:url(#SVGID_56_);fill:#DA291C;}
	.st29{clip-path:url(#SVGID_58_);fill:#595959;}
	.st30{clip-path:url(#SVGID_61_);}
	.st31{clip-path:url(#SVGID_62_);fill:#159393;}
	.st32{fill:#159393;}
	.st33{clip-path:url(#SVGID_64_);fill:#808285;}
	.st34{clip-path:url(#SVGID_66_);fill:#393939;}
	.st35{clip-path:url(#SVGID_69_);}
	.st36{clip-path:url(#SVGID_70_);fill:#393939;}
	.st37{clip-path:url(#SVGID_72_);fill:#E6E7E8;}
	.st38{clip-path:url(#SVGID_74_);fill:#159393;}
	.st39{clip-path:url(#SVGID_76_);fill:#FC76C5;}
	.st40{clip-path:url(#SVGID_78_);fill:#E23234;}
	.st41{clip-path:url(#SVGID_80_);fill:#FFAD3F;}
	.st42{clip-path:url(#SVGID_82_);fill:#00AAE7;}
	.st43{clip-path:url(#SVGID_85_);}
	.st44{clip-path:url(#SVGID_86_);fill:#0072BC;}
	.st45{clip-path:url(#SVGID_89_);}
	.st46{clip-path:url(#SVGID_90_);fill:#00AAE7;}
	.st47{clip-path:url(#SVGID_92_);fill:#0072BC;}
	.st48{clip-path:url(#SVGID_95_);}
	.st49{clip-path:url(#SVGID_96_);fill:#00AAE7;}
	.st50{clip-path:url(#SVGID_99_);}
	.st51{clip-path:url(#SVGID_100_);fill:#FDCC6B;}
	.st52{clip-path:url(#SVGID_102_);fill:#FDCC6B;}
	.st53{clip-path:url(#SVGID_104_);fill:#FDCC6B;}
	.st54{clip-path:url(#SVGID_106_);fill:#FDCC6B;}
	.st55{clip-path:url(#SVGID_108_);fill:#FDCC6B;}
	.st56{clip-path:url(#SVGID_110_);fill:#FDCC6B;}
	.st57{clip-path:url(#SVGID_112_);fill:#FDCC6B;}
	.st58{clip-path:url(#SVGID_115_);}
	.st59{clip-path:url(#SVGID_116_);fill:#0072BC;}
	.st60{clip-path:url(#SVGID_119_);}
	.st61{clip-path:url(#SVGID_120_);fill:#0072BC;}
	.st62{fill:#FFDC94;}
	.st63{clip-path:url(#SVGID_123_);}
	.st64{clip-path:url(#SVGID_124_);fill:#BCBEC0;}
	.st65{clip-path:url(#SVGID_127_);}
	.st66{clip-path:url(#SVGID_128_);fill:#BCBEC0;}
	.st67{clip-path:url(#SVGID_130_);fill:#0072BC;}
	.st68{clip-path:url(#SVGID_133_);}
	.st69{clip-path:url(#SVGID_134_);fill:#0072BC;}
	.st70{clip-path:url(#SVGID_137_);}
	.st71{clip-path:url(#SVGID_138_);fill:#D1D3D4;}
	.st72{clip-path:url(#SVGID_140_);fill:#BCBEC0;}
	.st73{clip-path:url(#SVGID_143_);}
	.st74{clip-path:url(#SVGID_144_);fill:#595959;}
	.st75{clip-path:url(#SVGID_147_);}
	.st76{clip-path:url(#SVGID_148_);fill:#BCBEC0;}
	.st77{clip-path:url(#SVGID_151_);}
	.st78{clip-path:url(#SVGID_152_);fill:#BCBEC0;}
	.st79{fill:#959595;}
	.st80{clip-path:url(#SVGID_155_);}
	.st81{clip-path:url(#SVGID_156_);fill:#BCBEC0;}
	.st82{clip-path:url(#SVGID_159_);}
	.st83{clip-path:url(#SVGID_160_);fill:#BCBEC0;}
	.st84{clip-path:url(#SVGID_163_);}
	.st85{clip-path:url(#SVGID_164_);fill:#DA291C;}
	.st86{clip-path:url(#SVGID_166_);fill:#E6E7E8;}
	.st87{clip-path:url(#SVGID_169_);}
	.st88{clip-path:url(#SVGID_170_);fill:#959595;}
	.st89{clip-path:url(#SVGID_173_);}
	.st90{clip-path:url(#SVGID_174_);fill:#159393;}
	.st91{clip-path:url(#SVGID_176_);fill:#159393;}
	.st92{clip-path:url(#SVGID_179_);}
	.st93{clip-path:url(#SVGID_180_);fill:#939598;}
	.st94{clip-path:url(#SVGID_182_);fill:#595959;}
	.st95{clip-path:url(#SVGID_185_);}
	.st96{clip-path:url(#SVGID_186_);fill:#595959;}
	.st97{clip-path:url(#SVGID_189_);}
	.st98{clip-path:url(#SVGID_190_);fill:#595959;}
	.st99{clip-path:url(#SVGID_193_);}
	.st100{clip-path:url(#SVGID_194_);fill:#959595;}
	.st101{fill-rule:evenodd;clip-rule:evenodd;fill:#0072BC;}
	.st102{clip-path:url(#SVGID_198_);fill:#E23234;}
	.st103{clip-path:url(#SVGID_200_);fill:#5BA5FF;}
	.st104{clip-path:url(#SVGID_202_);fill:#FFDC94;}
	.st105{clip-path:url(#SVGID_204_);fill:#80D25B;}
	.st106{clip-path:url(#SVGID_206_);fill:#B3DEF8;}
	.st107{clip-path:url(#SVGID_208_);fill:#BCBEC0;}
	.st108{fill:#B3DEF8;}
	.st109{fill:#0072BC;}
	.st110{clip-path:url(#SVGID_210_);fill:#B3DEF8;}
	.st111{clip-path:url(#SVGID_212_);fill:#393939;}
	.st112{fill:#FFAD3F;}
	.st113{fill:#A61E2F;}
	.st114{fill-rule:evenodd;clip-rule:evenodd;fill:#A61E2F;}
	.st115{fill:#FFFFFF;}
	.st116{fill:#B31A31;}
	.st117{fill:none;stroke:#A61E2F;stroke-width:20;stroke-linecap:round;stroke-linejoin:round;stroke-miterlimit:10;}
	.st118{fill:none;stroke:#A61E2F;stroke-width:20;stroke-linejoin:round;stroke-miterlimit:10;}
	
		.st119{fill-rule:evenodd;clip-rule:evenodd;fill:#A61E2F;stroke:#A61E2F;stroke-width:20;stroke-linejoin:round;stroke-miterlimit:10;}
	
		.st120{fill-rule:evenodd;clip-rule:evenodd;fill:none;stroke:#A61E2F;stroke-width:20;stroke-linecap:round;stroke-linejoin:round;stroke-miterlimit:10;}
	.st121{fill-rule:evenodd;clip-rule:evenodd;fill:#FFFFFF;}
	.st122{fill:#FFFFFF;stroke:#FFFFFF;stroke-width:35;stroke-linejoin:round;stroke-miterlimit:10;}
</style>
<g id="Layer_1">
	<polyline class="st0" points="799.57,215.79 799.57,215.79 247.44,215.79 247.44,275.23 740.12,275.23 738.93,275.23 	"/>
	<polyline class="st0" points="740.12,276.76 740.12,275.23 740.12,768.25 799.57,768.25 799.57,215.79 799.57,221.72 	"/>
</g>
<g id="Layer_2">
	<path class="st117" d="M668.6,504.34c13.03,6.12,20.57,17.82,16.17,32.01c-4.47,14.45-18.87,15.68-30.62,12.6
		c-31.85-8.35-63.15-18.78-94.76-28.08c-8.35-2.46-17.03-3.78-25.56-5.63c-0.85,2.65-1.7,5.3-2.54,7.95
		c7.85,3.73,15.44,8.2,23.59,11.04c25.41,8.84,51.09,16.91,76.56,25.59c10.07,3.43,20.4,7.5,18.39,21.28
		c-2.05,14-12.97,18.92-24.65,18.25c-14.51-0.83-28.99-4.27-43.21-7.71c-21.43-5.17-42.63-11.32-63.93-17.05
		c-1.01,2.63-2.03,5.26-3.04,7.9c8.55,4.18,16.78,9.32,25.72,12.34c19.73,6.66,40.12,11.47,59.6,18.75
		c5.88,2.2,13.35,10.01,13.42,15.33c0.07,6.1-6.09,15.75-11.68,17.67c-10.09,3.46-21.99,4.12-32.71,2.69
		c-16.28-2.16-32.11-7.48-48.29-10.69c-7.65-1.52-15.64-1.27-23.48-1.82c-0.56,2.49-1.11,4.97-1.67,7.46
		c7.4,2.99,14.62,6.64,22.25,8.82c12.51,3.59,25.64,5.26,37.81,9.67c6.21,2.25,14.72,6.78,14.28,13.71
		c-2.57,9.38-8.92,11.05-15.33,12.41c-12.54,2.66-53.01-2.84-65.93-2.96"/>
	<path class="st118" d="M240.12,603.14c0,0-17.34-9.55-28.01-16.53c-11.15-7.29-21.66-14.23-17.24-30.99
		c11.29-42.83,21.69-85.9,32.52-128.86c2.51-9.95,6.33-17.68,19.4-15.84c20.33,2.86,45.65,5.93,68.58,8.39"/>
	<path class="st113" d="M624.41,275.23l-60.79,46.14c-14.46,5.28-30.05,7.8-45.34,10.34c-23,3.82-46.18,6.62-69.97,9.95
		c-23.68,10.53-47.52,20.74-71.03,31.66c-42.85,19.91-54.97,59.98-64.49,101.16c-1.33,5.75,1.13,16.97,4.54,18.21
		c6.21,2.26,17.12,1.62,21.35-2.57c14.52-14.38,29.54-29.34,39.64-46.82c15.46-26.73,28.02-35,58.62-30.29
		c67.43,10.38,131.01,32.99,193.36,59.87c34.83,15.01,44.23,10.92,61.72-22.48l47.64-57.86V275.23H624.41z"/>
	<path class="st113" d="M366.28,594.58c-0.19,7-0.66,9.31-1.77,12.4c-8.5,23.58-16.52,47.4-26.47,70.37
		c-5.12,11.81-17.09,21.22-29.14,13.34c-6.94-4.54-12.22-19.95-10.09-28.42c5.85-23.34,14.35-46.44,25.32-67.84
		c3.92-7.65,17.63-16.55,27.46-14.03C357.71,581.98,365.75,589.04,366.28,594.58z"/>
	<path class="st113" d="M382.25,713.51c-17.08,5.18-33.09-7.24-29.06-23.79c5.29-21.68,15.31-42.23,23.84-62.88
		c3.75-9.07,16.45-10.14,23.91-8.74c6.01,1.13,16.8,7.94,14.28,18.18c-6.12,24.87-16.78,48.5-26.14,72.43
		C388.07,711.32,383.62,712.6,382.25,713.51z"/>
	<path class="st113" d="M439.22,729.65c-15.12,4.54-32.46-8.11-28.85-23.32c3.74-15.74,10.33-31.51,19-45.15
		c7.96-12.53,28.03-9.62,35.23,2.95C473,678.81,455.17,724.86,439.22,729.65z"/>
	<path class="st113" d="M294.62,613.39c2.93,13.16-12.99,45.82-23.65,48.51c-11.43,2.89-25.9-5.57-28.57-16.7
		c-3.32-13.82,12.17-45.02,23.79-47.94C278.52,594.17,292.05,601.85,294.62,613.39z"/>
</g>
</svg>
