<?xml version="1.0" encoding="utf-8"?>
<!-- Generator: Adobe Illustrator 24.1.0, SVG Export Plug-In . SVG Version: 6.00 Build 0)  -->
<svg version="1.1" id="Layer_1" xmlns="http://www.w3.org/2000/svg" xmlns:xlink="http://www.w3.org/1999/xlink" x="0px" y="0px"
	 viewBox="0 0 206.8 300.8" style="enable-background:new 0 0 206.8 300.8;" xml:space="preserve">
<style type="text/css">
	.st0{fill:#EE3124;}
	.st1{opacity:0.3;}
	.st2{fill:#702784;}
	.st3{fill:#0072BC;}
	.st4{fill:#AE132A;}
	.st5{fill:#00AAE7;}
	.st6{opacity:0.4;}
</style>
<path class="st0" d="M32,300.8c-7.8,0-16-1.7-21.8-4.4l2.5-11.8c6.2,1.9,12.5,3.2,19.5,3.2c7.8,0,9.3-1.5,9.3-7.2
	c0-6.1-0.3-6.8-11.4-9.2c-16.3-3.6-18.8-6.8-18.8-21.4c0-13.5,4.8-18.9,23.3-18.9c5.9,0,13,0.6,20.5,2.2l-1.5,12.8
	c-7.7-1.3-12.7-1.9-18.8-1.9c-6.8,0-8.3,1.2-8.3,6.2c0,6.5,0.3,6.6,11,9.1c18.3,4.4,19.2,7.9,19.2,21.2
	C56.8,294.2,52.4,300.8,32,300.8z"/>
<path class="st0" d="M129.7,299.8v-67.6h15.2v67.6H129.7z"/>
<path class="st0" d="M185.6,245.7v54.1h-15.2v-54.1h-18.2v-13.5h51.6v13.5H185.6z"/>
<path class="st0" d="M122.4,299.8l-20.7-67.6H81.4l-20.6,67.6h12.1v0h3.7c2.9-2.5,7.1-6.6,11.3-8.9c6.2-3.4,11.5-3.9,15.2-3.5
	l3.4,12.4H122.4z M91.9,274c-3,0.7-6.3,2.4-9.3,4.2l9-32.6l7.6,27.5C96.8,273.1,94.3,273.4,91.9,274z"/>
<path class="st1" d="M103.1,287.1l-3.9-14c-1.4,0-2.9,0.1-4.4,0.3L103.1,287.1z"/>
<path class="st2" d="M57,118.2c-16.2-7.7-34.6-13-41.5-16.7c-4.1-2.2-5.4-9.6-3.2-16.2c3.5-10.6,9.8-16.4,14.2-16.4
	c2.9,0,4.3,2.5,4.3,2.5s4.9-19.5,5.5-21.7c-12.1,0-24.9,14.8-32.1,36.4c-6.5,19.5-5.2,29.6,2.2,36.4c7.4,6.8,27.9,15.4,37.1,19.5
	c15.2,6.7,19.4,12.8,21.4,19c2,6.3,1,15.6-4.4,20.3c8.9-7,16.6-22.3,25.9-36.5c0.2-0.4,0.5-0.7,0.7-1.1
	C81.8,135.1,70.9,124.8,57,118.2z"/>
<path class="st3" d="M161.2,85.1c-12.1-14.7-21.3-24.3-21.3-35.2c0-8.5,6.1-13.9,12.5-15.8c-9.9,1.6-23.6,5.8-35,9.5
	c-1.3,0.4-2.7,0.9-4.1,1.4c0,0,0,0,0,0.1v0c-0.7,2.4-1.2,5.2-1.2,8.2c0,14.9,15.1,33.5,24.8,46.5c9.6,12.9,30.1,34.9,30.1,50.5
	c0,14.2-9.7,22.2-21.7,22.2c-19.5,0-22.9-22.4-22.9-22.4l-19.1,27.3c0,0,16.6,23.4,42.3,23.4c28.6,0,50.9-24.3,50.9-50.9
	C196.3,125.3,173.2,99.8,161.2,85.1z"/>
<path class="st4" d="M158.2,14.4c-11,0-27.7,5.1-42.2,9.4c-14.3,4.3-34.3,11.7-43.7,11.7c-6.7,0-8.6-5.2-6.8-9.4
	c-2.6,5.5-5.4,17.6-7.8,29.5c2.7,1,6.9,1.9,10.8,1.9c11.2,0,34.2-9.2,48.7-13.9s32.8-10.2,42.1-10.2c9.2,0,21.1,6.6,21.1,18.7
	c0,13.4-11.8,16.6-18.4,16.6c-4.7,0-9-0.7-9-0.7l22.6,27.3c0,0,31.1-11.1,31.1-37.9C206.8,32.2,182.3,14.4,158.2,14.4z"/>
<path class="st5" d="M121.9,17.3c0,0-0.1-17.3-18.6-17.3C72.9,0,55.4,17.7,48.7,30.1C42.3,42,38,61.4,35.2,72.7
	c-3.3,13.3-8.4,31-19,29.1c0,0,0,0,0.1,0c4.9,2.5,14.4,5.6,24.8,9.6c4.7-7.5,9.3-19.3,11.7-30.5c2.8-13.1,8.1-44.9,12.8-54.9
	c4.7-10,15-14.6,23.3-14.6c13.2,0,6,14.2,6,14.2L121.9,17.3z"/>
<path class="st0" d="M164.4,139.8L164.4,139.8c-0.3-0.7-0.6-1.5-1-2.2c-0.3-0.5-0.5-1.1-0.8-1.6c-6.4-12.8-18.8-26.6-25.8-35.9
	c-22.5,2-38.1,25.6-50.5,44.7C74,163.8,64.2,185,50.8,185c-8.3,0-17.9-9.8-17.9-23c0-12.5,10-15.3,10-15.3l-21.1-9.6
	c0,0-5.8,6.7-5.8,22.7c0,23.2,19.2,50.1,42.2,50.1c23.4,0,33-23.4,45.1-41.3c17.1-25.2,27.6-40.3,42.7-40.3
	C151.4,128.3,160.4,131.6,164.4,139.8L164.4,139.8z"/>
<path class="st6" d="M146.8,36.8C146.8,36.8,146.8,36.8,146.8,36.8L146.8,36.8c0.4-0.3,0.9-0.6,1.3-0.8c0,0,0,0,0,0
	c0,0,0.1,0,0.1-0.1c0,0,0,0,0,0s0,0,0,0c0.4-0.2,0.8-0.4,1.2-0.6c0.1,0,0.1-0.1,0.2-0.1l0,0c0,0,0,0,0,0c0.3-0.2,0.7-0.3,1-0.4l0,0
	l0,0c0.1,0,0.2-0.1,0.3-0.1l0,0c0.4-0.2,0.9-0.3,1.3-0.4c0,0,0,0,0,0c0,0,0,0,0,0c0,0,0,0,0,0c-2.5,0.4-5.2,1-8,1.6
	c-0.1,0-0.2,0.1-0.3,0.1c-3.5,0.8-7.2,1.8-10.9,2.9c-0.1,0-0.2,0.1-0.3,0.1c-1.4,0.4-2.8,0.8-4.3,1.3c-0.5,0.1-1,0.3-1.4,0.4
	c-1.5,0.4-2.9,0.9-4.3,1.3c-0.6,0.2-1.2,0.4-1.8,0.6c-1.3,0.4-2.5,0.8-3.7,1.2c-1.3,0.4-2.7,0.9-4.1,1.4c0,0,0,0,0,0.1v0
	c-0.7,2.2-1.1,4.6-1.2,7.4C120.3,48.8,136.9,41.5,146.8,36.8z"/>
<path d="M65.5,26.2"/>
<path class="st1" d="M41,111.5L41,111.5c1.1-1.7,2.2-3.7,3.2-5.7c-9.5-1.5-27.7-3.8-28.1-3.9c0,0,0,0,0,0c0,0,0,0,0,0
	c0.1,0,0.1,0.1,0.2,0.1c0,0,0.1,0,0.1,0.1c0.1,0,0.1,0.1,0.2,0.1c0.2,0.1,0.5,0.2,0.7,0.3c0.3,0.1,0.6,0.3,0.9,0.4
	c0.4,0.2,0.8,0.3,1.2,0.5c0.4,0.2,0.8,0.3,1.3,0.5c0.4,0.2,0.8,0.3,1.3,0.5c0.1,0.1,0.3,0.1,0.5,0.2c0.3,0.1,0.5,0.2,0.8,0.3
	c0,0,0.1,0,0.1,0c0.2,0.1,0.4,0.1,0.6,0.2c0.1,0.1,0.3,0.1,0.4,0.2c0.1,0.1,0.3,0.1,0.4,0.2c0.2,0.1,0.4,0.2,0.6,0.2
	c0.1,0,0.2,0.1,0.3,0.1c0.2,0.1,0.4,0.1,0.5,0.2c0.2,0.1,0.4,0.2,0.6,0.2c0.3,0.1,0.6,0.2,0.9,0.3c0,0,0.1,0,0.1,0
	c0.2,0.1,0.4,0.1,0.6,0.2c0.4,0.2,0.8,0.3,1.3,0.5c0.1,0,0.2,0.1,0.4,0.1c0.5,0.2,1.1,0.4,1.6,0.6c0.6,0.2,1.2,0.4,1.8,0.7
	c1.2,0.4,2.4,0.9,3.7,1.4c0,0,0,0,0,0C38.4,110.5,39.7,111,41,111.5L41,111.5L41,111.5z"/>
<path class="st6" d="M86.1,142.1c-0.2-0.3-0.5-0.7-0.7-1c-0.1-0.2-0.2-0.3-0.3-0.5c-0.3-0.4-0.6-0.9-1-1.3c0,0-0.1-0.1-0.1-0.1
	c-0.4-0.5-0.8-0.9-1.2-1.4c-4.1,8.2-14.8,31.3-18.6,37.8c-0.9,2.1-2.1,4-3.8,5.5l0,0c0,0,0,0,0,0c1.1-0.9,2.2-1.9,3.3-3
	c0.5-0.6,1.1-1.1,1.6-1.8c0.5-0.6,1-1.1,1.4-1.7c0.1-0.2,0.3-0.4,0.4-0.5c0.2-0.2,0.3-0.4,0.5-0.7c0.2-0.2,0.4-0.5,0.5-0.7
	c0.1-0.2,0.3-0.4,0.4-0.6c0.9-1.3,1.9-2.6,2.8-4c0,0,0,0,0,0c0.1-0.2,0.3-0.4,0.4-0.6c0.2-0.3,0.4-0.6,0.6-0.9
	c0.2-0.2,0.3-0.5,0.5-0.7c0.1-0.2,0.3-0.4,0.4-0.6c1-1.5,2-3.1,3-4.8c0.8-1.2,1.5-2.5,2.3-3.7c0,0,0-0.1,0-0.1c0,0,0,0,0,0
	c0,0,0-0.1,0.1-0.1c0,0,0,0,0,0c0,0,0,0,0,0c0.8-1.3,1.6-2.6,2.4-4l0,0c0,0,0,0,0,0l0,0c0,0,0,0,0,0c0,0,0,0,0,0l0,0c0,0,0,0,0,0
	l0,0c0,0,0,0,0,0c0.7-1.1,1.4-2.3,2.1-3.4c0,0,0,0,0,0c0,0,0,0,0,0l0,0l0,0c0,0,0,0,0,0c0.2-0.3,0.4-0.6,0.6-0.9c0,0,0,0,0,0l0,0
	c0,0,0,0,0,0c0.8-1.2,1.5-2.4,2.3-3.6c0.2-0.4,0.5-0.7,0.7-1.1C86.8,143.1,86.5,142.6,86.1,142.1z"/>
<path class="st1" d="M160.4,134.3c0.3,0.3,0.6,0.6,0.8,0.8c0,0,0.1,0.1,0.1,0.1c0.3,0.3,0.5,0.6,0.8,0.9l0,0
	c0.1,0.1,0.2,0.2,0.2,0.3l0,0l0,0c0.2,0.2,0.4,0.5,0.6,0.8c0.2,0.3,0.5,0.6,0.7,1c0,0,0,0,0,0l0,0c0,0.1,0.1,0.1,0.1,0.2
	c0-0.2-0.1-0.3-0.1-0.5c-0.1-0.1-0.1-0.3-0.2-0.4c-0.3-0.5-0.5-1.1-0.8-1.6l0,0c-0.1-0.2-0.2-0.4-0.3-0.6c-0.3-0.6-0.6-1.2-1-1.8
	c-0.2-0.4-0.4-0.7-0.6-1.1c-0.3-0.4-0.5-0.9-0.8-1.3c-0.3-0.4-0.5-0.9-0.8-1.3c-0.2-0.4-0.4-0.7-0.7-1.1c-0.2-0.4-0.5-0.8-0.8-1.2
	c-0.3-0.4-0.5-0.8-0.8-1.3c-0.2-0.3-0.5-0.7-0.7-1c-0.3-0.5-0.6-0.9-1-1.4c-0.3-0.4-0.6-0.8-0.9-1.2c-0.3-0.4-0.6-0.8-0.9-1.2
	c-0.8-1.1-1.7-2.2-2.5-3.4c-0.9-1.2-1.8-2.4-2.7-3.6c-1.2-1.5-2.4-3-3.5-4.4c-0.1-0.1-0.1-0.2-0.2-0.2c-0.8-1-1.6-2.1-2.4-3.1
	c-1-1.2-1.9-2.4-2.8-3.5c-0.9-1.1-1.7-2.2-2.5-3.3c-2.5,0.2-4.9,0.7-7.3,1.4C137.2,109.4,154.1,126.9,160.4,134.3z"/>
<path class="st1" d="M65.3,31.5L65.3,31.5c-0.3-0.8-0.4-1.6-0.4-2.5c0-0.1,0-0.1,0-0.2c0-0.1,0-0.3,0-0.4c0-0.1,0-0.2,0-0.3
	c0-0.1,0-0.2,0.1-0.4c0-0.2,0.1-0.3,0.1-0.5c0-0.1,0-0.2,0.1-0.3c0.1-0.2,0.2-0.5,0.3-0.7c-2.6,5.5-5.4,17.6-7.8,29.5
	c1.7,0.6,3.9,1.2,6.3,1.5C64.4,50.1,65,37.9,65.3,31.5z"/>
</svg>
