<?xml version="1.0" encoding="utf-8"?>
<!-- Generator: Adobe Illustrator 24.2.1, SVG Export Plug-In . SVG Version: 6.00 Build 0)  -->
<svg version="1.1" id="Layer_1" xmlns="http://www.w3.org/2000/svg" xmlns:xlink="http://www.w3.org/1999/xlink" x="0px" y="0px"
	 viewBox="0 0 75.8 75.8" style="enable-background:new 0 0 75.8 75.8;" xml:space="preserve">
<style type="text/css">
	.st0{fill:#FFFFFF;}
</style>
<g>
	<path class="st0" d="M54,40L35.3,57.9c-0.6,0.6-1.4,0.9-2.3,0.9c-0.9,0-1.7-0.3-2.3-0.9l-3-3c-0.6-0.6-1-1.4-1-2.2s0.3-1.6,1-2.2
		l13.2-12.6L27.6,25.2c-0.6-0.6-1-1.4-1-2.2s0.3-1.6,1-2.2l3-3c0.6-0.6,1.4-0.9,2.3-0.9c0.9,0,1.7,0.3,2.3,0.9L54,35.6
		c0.6,0.6,1,1.4,1,2.2C55,38.7,54.7,39.4,54,40z"/>
</g>
<path class="st0" d="M37.9,75.8C17,75.8,0,58.8,0,37.9S17,0,37.9,0s37.9,17,37.9,37.9S58.8,75.8,37.9,75.8z M37.9,3.6
	C19,3.6,3.6,19,3.6,37.9c0,18.9,15.4,34.3,34.3,34.3c18.9,0,34.3-15.4,34.3-34.3C72.2,19,56.8,3.6,37.9,3.6z"/>
</svg>
